<svg width="210" height="189" viewBox="0 0 210 189" fill="none" xmlns="http://www.w3.org/2000/svg">
<path d="M130.349 188.686C129.55 188.686 128.832 188.588 128.196 188.392C127.56 188.196 127.054 187.952 126.679 187.658C126.32 187.348 126.141 187.038 126.141 186.728C126.141 186.581 126.173 186.418 126.239 186.239C126.32 186.059 126.426 185.904 126.557 185.774C126.703 185.643 126.858 185.578 127.022 185.578C127.234 185.578 127.454 185.676 127.682 185.872C127.927 186.051 128.245 186.239 128.637 186.435C129.028 186.614 129.575 186.704 130.276 186.704C131.092 186.704 131.638 186.565 131.916 186.288C132.209 186.01 132.356 185.709 132.356 185.382C132.356 184.958 132.209 184.632 131.916 184.403C131.638 184.159 131.271 183.963 130.814 183.816C130.374 183.669 129.901 183.531 129.395 183.4C128.889 183.253 128.408 183.066 127.951 182.837C127.511 182.609 127.144 182.291 126.85 181.883C126.573 181.475 126.434 180.937 126.434 180.268C126.434 179.713 126.573 179.167 126.85 178.629C127.128 178.074 127.568 177.625 128.172 177.283C128.792 176.924 129.615 176.744 130.643 176.744C131.263 176.744 131.85 176.81 132.405 176.94C132.96 177.071 133.416 177.25 133.775 177.478C134.134 177.691 134.314 177.927 134.314 178.188C134.314 178.302 134.273 178.465 134.191 178.678C134.11 178.873 133.995 179.053 133.849 179.216C133.718 179.363 133.547 179.436 133.335 179.436C133.172 179.436 132.968 179.379 132.723 179.265C132.478 179.134 132.193 179.012 131.867 178.898C131.54 178.784 131.141 178.726 130.668 178.726C130.194 178.726 129.811 178.808 129.517 178.971C129.24 179.118 129.036 179.297 128.906 179.509C128.775 179.722 128.71 179.934 128.71 180.146C128.71 180.505 128.849 180.782 129.126 180.978C129.403 181.173 129.77 181.337 130.227 181.467C130.684 181.598 131.165 181.736 131.671 181.883C132.177 182.014 132.65 182.209 133.09 182.47C133.547 182.731 133.914 183.082 134.191 183.523C134.485 183.963 134.632 184.55 134.632 185.284C134.632 186.312 134.257 187.136 133.506 187.756C132.772 188.376 131.72 188.686 130.349 188.686Z" fill="#1E495B"/>
<path d="M116.365 188.49C116.006 188.49 115.704 188.4 115.459 188.221C115.231 188.041 115.117 187.846 115.117 187.634V170.823C115.117 170.578 115.231 170.382 115.459 170.235C115.704 170.072 116.006 169.991 116.365 169.991C116.74 169.991 117.05 170.072 117.295 170.235C117.556 170.382 117.686 170.578 117.686 170.823V181.712L122.8 177.014C122.947 176.867 123.127 176.793 123.339 176.793C123.534 176.793 123.722 176.859 123.901 176.989C124.097 177.103 124.26 177.258 124.391 177.454C124.521 177.634 124.587 177.821 124.587 178.017C124.587 178.115 124.57 178.213 124.538 178.311C124.505 178.392 124.448 178.474 124.366 178.555L121.21 181.369L125.052 186.899C125.149 187.063 125.198 187.209 125.198 187.34C125.198 187.552 125.117 187.756 124.954 187.952C124.807 188.147 124.619 188.311 124.391 188.441C124.179 188.572 123.967 188.637 123.755 188.637C123.461 188.637 123.233 188.515 123.069 188.27L119.472 182.96L117.686 184.575V187.634C117.686 187.846 117.556 188.041 117.295 188.221C117.05 188.4 116.74 188.49 116.365 188.49Z" fill="#1E495B"/>
<path d="M109.395 188.686C108.221 188.686 107.25 188.474 106.484 188.05C105.733 187.625 105.178 187.046 104.82 186.312C104.461 185.578 104.281 184.746 104.281 183.816V181.614C104.281 180.7 104.461 179.877 104.82 179.142C105.178 178.392 105.733 177.805 106.484 177.381C107.234 176.956 108.188 176.744 109.347 176.744C110.097 176.744 110.749 176.834 111.304 177.014C111.875 177.193 112.316 177.421 112.626 177.699C112.952 177.96 113.115 178.237 113.115 178.531C113.115 178.678 113.066 178.857 112.968 179.069C112.887 179.265 112.764 179.436 112.601 179.583C112.454 179.713 112.275 179.779 112.063 179.779C111.9 179.779 111.72 179.713 111.524 179.583C111.345 179.452 111.1 179.33 110.79 179.216C110.48 179.085 110.064 179.02 109.542 179.02C108.629 179.02 107.952 179.248 107.511 179.705C107.071 180.162 106.851 180.798 106.851 181.614V183.816C106.851 184.632 107.071 185.268 107.511 185.725C107.952 186.182 108.637 186.41 109.567 186.41C110.105 186.41 110.529 186.345 110.839 186.214C111.149 186.067 111.394 185.929 111.573 185.798C111.769 185.668 111.957 185.603 112.136 185.603C112.365 185.603 112.56 185.668 112.723 185.798C112.903 185.929 113.033 186.092 113.115 186.288C113.213 186.483 113.262 186.663 113.262 186.826C113.262 187.103 113.09 187.389 112.748 187.682C112.422 187.976 111.965 188.221 111.378 188.417C110.807 188.596 110.146 188.686 109.395 188.686Z" fill="#1E495B"/>
<path d="M97.3726 188.686C96.4916 188.686 95.6678 188.457 94.9011 188.001C94.1344 187.544 93.5144 186.948 93.0414 186.214C92.5846 185.464 92.3562 184.665 92.3562 183.816V181.565C92.3562 180.7 92.5764 179.901 93.0169 179.167C93.4737 178.433 94.0854 177.846 94.8521 177.405C95.6352 176.965 96.4835 176.744 97.397 176.744C98.3106 176.744 99.1507 176.965 99.9174 177.405C100.684 177.829 101.296 178.408 101.753 179.142C102.226 179.86 102.462 180.668 102.462 181.565V183.816C102.462 184.648 102.226 185.439 101.753 186.19C101.296 186.94 100.676 187.544 99.893 188.001C99.1262 188.457 98.2861 188.686 97.3726 188.686ZM97.397 186.41C97.8538 186.41 98.2698 186.288 98.645 186.043C99.0202 185.798 99.322 185.48 99.5504 185.089C99.7788 184.681 99.893 184.257 99.893 183.816V181.565C99.893 181.141 99.7788 180.733 99.5504 180.341C99.322 179.95 99.0202 179.632 98.645 179.387C98.2698 179.142 97.8538 179.02 97.397 179.02C96.9239 179.02 96.4998 179.142 96.1246 179.387C95.7657 179.632 95.472 179.95 95.2437 180.341C95.0316 180.733 94.9256 181.141 94.9256 181.565V183.816C94.9256 184.257 95.0316 184.681 95.2437 185.089C95.472 185.48 95.7738 185.798 96.1491 186.043C96.5243 186.288 96.9402 186.41 97.397 186.41Z" fill="#1E495B"/>
<path d="M86.4039 188.686C85.6046 188.686 84.8868 188.588 84.2505 188.392C83.6143 188.196 83.1086 187.952 82.7334 187.658C82.3745 187.348 82.1951 187.038 82.1951 186.728C82.1951 186.581 82.2277 186.418 82.2929 186.239C82.3745 186.059 82.4806 185.904 82.6111 185.774C82.7579 185.643 82.9129 185.578 83.076 185.578C83.2881 185.578 83.5083 185.676 83.7367 185.872C83.9814 186.051 84.2995 186.239 84.691 186.435C85.0825 186.614 85.629 186.704 86.3305 186.704C87.1462 186.704 87.6927 186.565 87.97 186.288C88.2636 186.01 88.4104 185.709 88.4104 185.382C88.4104 184.958 88.2636 184.632 87.97 184.403C87.6927 184.159 87.3256 183.963 86.8688 183.816C86.4284 183.669 85.9553 183.531 85.4496 183.4C84.9439 183.253 84.4626 183.066 84.0058 182.837C83.5654 182.609 83.1983 182.291 82.9047 181.883C82.6274 181.475 82.4887 180.937 82.4887 180.268C82.4887 179.713 82.6274 179.167 82.9047 178.629C83.182 178.074 83.6225 177.625 84.2261 177.283C84.846 176.924 85.6698 176.744 86.6975 176.744C87.3175 176.744 87.9047 176.81 88.4594 176.94C89.014 177.071 89.4708 177.25 89.8297 177.478C90.1886 177.691 90.368 177.927 90.368 178.188C90.368 178.302 90.3273 178.465 90.2457 178.678C90.1641 178.873 90.0499 179.053 89.9031 179.216C89.7726 179.363 89.6013 179.436 89.3892 179.436C89.2261 179.436 89.0222 179.379 88.7775 179.265C88.5328 179.134 88.2473 179.012 87.921 178.898C87.5948 178.784 87.1951 178.726 86.722 178.726C86.2489 178.726 85.8656 178.808 85.5719 178.971C85.2946 179.118 85.0907 179.297 84.9602 179.509C84.8297 179.722 84.7644 179.934 84.7644 180.146C84.7644 180.505 84.9031 180.782 85.1804 180.978C85.4577 181.173 85.8248 181.337 86.2816 181.467C86.7383 181.598 87.2196 181.736 87.7253 181.883C88.231 182.014 88.7041 182.209 89.1445 182.47C89.6013 182.731 89.9684 183.082 90.2457 183.523C90.5393 183.963 90.6862 184.55 90.6862 185.284C90.6862 186.312 90.311 187.136 89.5605 187.756C88.8264 188.376 87.7742 188.686 86.4039 188.686Z" fill="#1E495B"/>
<path d="M43.9216 133.35C43.7474 133.35 43.6034 133.29 43.4895 133.169C43.3756 133.049 43.3186 132.908 43.3186 132.747C43.3186 132.58 43.3756 132.439 43.4895 132.325C43.6034 132.205 43.7474 132.144 43.9216 132.144C44.0824 132.144 44.2198 132.205 44.3337 132.325C44.4543 132.439 44.5146 132.58 44.5146 132.747C44.5146 132.908 44.4543 133.049 44.3337 133.169C44.2198 133.29 44.0824 133.35 43.9216 133.35Z" fill="#89BBA4"/>
<path d="M40.198 133.35C39.7692 133.35 39.3839 133.277 39.0422 133.129C38.7072 132.982 38.4392 132.744 38.2382 132.416C38.0439 132.087 37.9468 131.652 37.9468 131.109V128.185C37.9468 127.642 38.0439 127.206 38.2382 126.878C38.4392 126.55 38.7072 126.312 39.0422 126.164C39.3839 126.017 39.7692 125.943 40.198 125.943C40.6201 125.943 41.002 126.017 41.3437 126.164C41.6854 126.312 41.9567 126.55 42.1577 126.878C42.3587 127.206 42.4592 127.642 42.4592 128.185V131.109C42.4592 131.652 42.3587 132.087 42.1577 132.416C41.9567 132.744 41.6854 132.982 41.3437 133.129C41.002 133.277 40.6201 133.35 40.198 133.35ZM40.198 132.406C40.5665 132.406 40.8579 132.302 41.0723 132.094C41.2867 131.88 41.3939 131.551 41.3939 131.109V128.185C41.3939 127.742 41.2867 127.417 41.0723 127.21C40.8646 126.995 40.5732 126.888 40.198 126.888C39.8228 126.888 39.528 126.995 39.3136 127.21C39.1059 127.417 39.002 127.742 39.002 128.185V131.109C39.002 131.551 39.1059 131.88 39.3136 132.094C39.528 132.302 39.8228 132.406 40.198 132.406Z" fill="#89BBA4"/>
<path d="M32.5925 133.29C32.4585 133.29 32.3345 133.26 32.2206 133.199C32.1134 133.139 32.0598 133.052 32.0598 132.938V126.295C32.0598 126.168 32.1134 126.077 32.2206 126.024C32.3345 125.97 32.4585 125.943 32.5925 125.943C32.7198 125.943 32.827 125.963 32.9141 126.004C33.0079 126.037 33.0916 126.097 33.1653 126.185C33.239 126.272 33.3161 126.392 33.3965 126.546L35.6276 130.898V126.285C35.6276 126.164 35.6812 126.077 35.7884 126.024C35.9023 125.97 36.0262 125.943 36.1602 125.943C36.2942 125.943 36.4148 125.97 36.522 126.024C36.6359 126.077 36.6929 126.164 36.6929 126.285V132.938C36.6929 133.052 36.6359 133.139 36.522 133.199C36.4148 133.26 36.2942 133.29 36.1602 133.29C36.0262 133.29 35.9056 133.256 35.7984 133.189C35.6912 133.122 35.6008 133.025 35.5271 132.898L33.1251 128.325V132.938C33.1251 133.052 33.0682 133.139 32.9543 133.199C32.8471 133.26 32.7265 133.29 32.5925 133.29Z" fill="#89BBA4"/>
<path d="M28.5481 133.35C28.1193 133.35 27.734 133.277 27.3923 133.129C27.0573 132.982 26.7893 132.744 26.5883 132.416C26.394 132.087 26.2969 131.652 26.2969 131.109V128.185C26.2969 127.642 26.394 127.206 26.5883 126.878C26.7893 126.55 27.0573 126.312 27.3923 126.164C27.734 126.017 28.1193 125.943 28.5481 125.943C28.9702 125.943 29.3521 126.017 29.6938 126.164C30.0355 126.312 30.3068 126.55 30.5078 126.878C30.7088 127.206 30.8093 127.642 30.8093 128.185V131.109C30.8093 131.652 30.7088 132.087 30.5078 132.416C30.3068 132.744 30.0355 132.982 29.6938 133.129C29.3521 133.277 28.9702 133.35 28.5481 133.35ZM28.5481 132.406C28.9166 132.406 29.208 132.302 29.4224 132.094C29.6368 131.88 29.744 131.551 29.744 131.109V128.185C29.744 127.742 29.6368 127.417 29.4224 127.21C29.2147 126.995 28.9233 126.888 28.5481 126.888C28.1729 126.888 27.8781 126.995 27.6637 127.21C27.456 127.417 27.3521 127.742 27.3521 128.185V131.109C27.3521 131.551 27.456 131.88 27.6637 132.094C27.8781 132.302 28.1729 132.406 28.5481 132.406Z" fill="#89BBA4"/>
<path d="M20.0004 133.29C19.8664 133.29 19.7425 133.26 19.6286 133.199C19.5214 133.139 19.4678 133.052 19.4678 132.938V126.476C19.4678 126.275 19.5214 126.138 19.6286 126.064C19.7425 125.984 19.8664 125.943 20.0004 125.943C20.1277 125.943 20.2383 125.963 20.3321 126.004C20.4259 126.037 20.513 126.097 20.5934 126.185C20.6738 126.272 20.7575 126.392 20.8446 126.546L22.2516 129.21L23.6787 126.546C23.7658 126.392 23.8462 126.272 23.9199 126.185C24.0003 126.097 24.0874 126.037 24.1812 126.004C24.275 125.963 24.3856 125.943 24.5129 125.943C24.6536 125.943 24.7775 125.984 24.8847 126.064C24.9919 126.138 25.0455 126.275 25.0455 126.476V132.938C25.0455 133.052 24.9886 133.139 24.8747 133.199C24.7675 133.26 24.6469 133.29 24.5129 133.29C24.3789 133.29 24.2549 133.26 24.141 133.199C24.0338 133.139 23.9802 133.052 23.9802 132.938V128.114L22.6335 130.607C22.5799 130.694 22.5196 130.757 22.4526 130.798C22.3856 130.831 22.3153 130.848 22.2416 130.848C22.1813 130.848 22.1176 130.831 22.0506 130.798C21.9836 130.764 21.9267 130.7 21.8798 130.607L20.5331 128.054V132.938C20.5331 133.052 20.4761 133.139 20.3622 133.199C20.255 133.26 20.1344 133.29 20.0004 133.29Z" fill="#89BBA4"/>
<path d="M17.6056 133.29C17.4716 133.29 17.3477 133.26 17.2338 133.199C17.1266 133.139 17.073 133.052 17.073 132.938V126.285C17.073 126.164 17.1266 126.077 17.2338 126.024C17.3477 125.97 17.4716 125.943 17.6056 125.943C17.7396 125.943 17.8602 125.97 17.9674 126.024C18.0813 126.077 18.1383 126.164 18.1383 126.285V132.938C18.1383 133.052 18.0813 133.139 17.9674 133.199C17.8602 133.26 17.7396 133.29 17.6056 133.29Z" fill="#89BBA4"/>
<path d="M12.7756 133.29C12.6617 133.29 12.5545 133.26 12.454 133.199C12.3535 133.139 12.3032 133.052 12.3032 132.938V126.285C12.3032 126.164 12.3568 126.077 12.464 126.024C12.5779 125.97 12.7019 125.943 12.8359 125.943C12.9699 125.943 13.0905 125.97 13.1977 126.024C13.3116 126.077 13.3685 126.164 13.3685 126.285V132.345H15.9815C16.0887 132.345 16.1691 132.395 16.2227 132.496C16.2763 132.59 16.3031 132.697 16.3031 132.818C16.3031 132.931 16.2763 133.039 16.2227 133.139C16.1691 133.24 16.0887 133.29 15.9815 133.29H12.7756Z" fill="#89BBA4"/>
<path d="M41.1486 143.29C41.0146 143.29 40.8907 143.26 40.7768 143.199C40.6696 143.139 40.616 143.052 40.616 142.938V136.285C40.616 136.191 40.6528 136.111 40.7265 136.044C40.8069 135.977 40.9074 135.943 41.028 135.943H42.9878C43.3965 135.943 43.7683 136.017 44.1033 136.164C44.4383 136.305 44.703 136.539 44.8973 136.868C45.0916 137.189 45.1887 137.618 45.1887 138.154V138.235C45.1887 138.771 45.0882 139.203 44.8872 139.531C44.6929 139.859 44.4216 140.097 44.0732 140.245C43.7315 140.385 43.3496 140.456 42.9275 140.456H41.6813V142.938C41.6813 143.052 41.6243 143.139 41.5104 143.199C41.4032 143.26 41.2826 143.29 41.1486 143.29ZM41.6813 139.611H42.9275C43.3027 139.611 43.5941 139.504 43.8018 139.29C44.0162 139.075 44.1234 138.747 44.1234 138.305V138.184C44.1234 137.742 44.0162 137.417 43.8018 137.209C43.5941 136.995 43.3027 136.888 42.9275 136.888H41.6813V139.611Z" fill="#89BBA4"/>
<path d="M37.1045 143.35C36.6757 143.35 36.2904 143.276 35.9487 143.129C35.6137 142.981 35.3457 142.744 35.1447 142.415C34.9504 142.087 34.8533 141.652 34.8533 141.109V138.184C34.8533 137.642 34.9504 137.206 35.1447 136.878C35.3457 136.549 35.6137 136.312 35.9487 136.164C36.2904 136.017 36.6757 135.943 37.1045 135.943C37.5266 135.943 37.9085 136.017 38.2502 136.164C38.5919 136.312 38.8632 136.549 39.0642 136.878C39.2652 137.206 39.3657 137.642 39.3657 138.184V141.109C39.3657 141.652 39.2652 142.087 39.0642 142.415C38.8632 142.744 38.5919 142.981 38.2502 143.129C37.9085 143.276 37.5266 143.35 37.1045 143.35ZM37.1045 142.405C37.473 142.405 37.7644 142.301 37.9788 142.094C38.1932 141.879 38.3004 141.551 38.3004 141.109V138.184C38.3004 137.742 38.1932 137.417 37.9788 137.209C37.7711 136.995 37.4797 136.888 37.1045 136.888C36.7293 136.888 36.4345 136.995 36.2201 137.209C36.0124 137.417 35.9085 137.742 35.9085 138.184V141.109C35.9085 141.551 36.0124 141.879 36.2201 142.094C36.4345 142.301 36.7293 142.405 37.1045 142.405Z" fill="#89BBA4"/>
<path d="M29.499 143.29C29.365 143.29 29.241 143.26 29.1271 143.199C29.0199 143.139 28.9663 143.052 28.9663 142.938V136.285C28.9663 136.164 29.0199 136.077 29.1271 136.024C29.241 135.97 29.365 135.943 29.499 135.943C29.633 135.943 29.7536 135.97 29.8608 136.024C29.9747 136.077 30.0316 136.164 30.0316 136.285V139.059H32.5341V136.285C32.5341 136.164 32.5877 136.077 32.6949 136.024C32.8088 135.97 32.9327 135.943 33.0667 135.943C33.2007 135.943 33.3213 135.97 33.4285 136.024C33.5424 136.077 33.5994 136.164 33.5994 136.285V142.938C33.5994 143.052 33.5424 143.139 33.4285 143.199C33.3213 143.26 33.2007 143.29 33.0667 143.29C32.9327 143.29 32.8088 143.26 32.6949 143.199C32.5877 143.139 32.5341 143.052 32.5341 142.938V139.903H30.0316V142.938C30.0316 143.052 29.9747 143.139 29.8608 143.199C29.7536 143.26 29.633 143.29 29.499 143.29Z" fill="#89BBA4"/>
<path d="M25.6825 143.37C25.247 143.37 24.8617 143.307 24.5267 143.179C24.1917 143.052 23.9304 142.898 23.7428 142.717C23.5552 142.529 23.4614 142.352 23.4614 142.184C23.4614 142.104 23.4815 142.02 23.5217 141.933C23.5686 141.846 23.6256 141.772 23.6926 141.712C23.7663 141.645 23.8433 141.611 23.9237 141.611C24.0175 141.611 24.1046 141.652 24.185 141.732C24.2721 141.806 24.376 141.896 24.4966 142.003C24.6172 142.111 24.7679 142.204 24.9488 142.285C25.1297 142.365 25.3609 142.405 25.6423 142.405C25.8835 142.405 26.0979 142.369 26.2855 142.295C26.4798 142.214 26.6305 142.097 26.7377 141.943C26.8516 141.782 26.9086 141.581 26.9086 141.34C26.9086 141.085 26.8483 140.874 26.7277 140.707C26.6138 140.539 26.4563 140.399 26.2553 140.285C26.061 140.171 25.85 140.067 25.6222 139.973C25.3944 139.879 25.1632 139.779 24.9287 139.672C24.6942 139.565 24.4798 139.437 24.2855 139.29C24.0912 139.136 23.9338 138.945 23.8132 138.717C23.6993 138.483 23.6423 138.191 23.6423 137.843C23.6423 137.474 23.7093 137.166 23.8433 136.918C23.984 136.67 24.1683 136.473 24.3961 136.325C24.6239 136.178 24.8751 136.074 25.1498 136.014C25.4245 135.947 25.6959 135.913 25.9639 135.913C26.1314 135.913 26.3156 135.926 26.5166 135.953C26.7243 135.973 26.9253 136.014 27.1196 136.074C27.3139 136.127 27.4747 136.201 27.602 136.295C27.7293 136.389 27.793 136.503 27.793 136.637C27.793 136.704 27.7762 136.784 27.7427 136.878C27.7092 136.965 27.659 137.042 27.592 137.109C27.5317 137.176 27.4513 137.21 27.3508 137.21C27.2637 137.21 27.1665 137.179 27.0593 137.119C26.9521 137.052 26.8114 136.988 26.6372 136.928C26.4697 136.861 26.2453 136.828 25.9639 136.828C25.7227 136.828 25.5049 136.861 25.3106 136.928C25.123 136.995 24.9756 137.096 24.8684 137.23C24.7612 137.357 24.7076 137.528 24.7076 137.742C24.7076 137.957 24.7646 138.134 24.8785 138.275C24.9991 138.409 25.1565 138.526 25.3508 138.627C25.5451 138.72 25.7562 138.811 25.984 138.898C26.2185 138.985 26.4496 139.089 26.6774 139.209C26.9119 139.323 27.1263 139.464 27.3206 139.632C27.5216 139.799 27.6791 140.013 27.793 140.275C27.9136 140.529 27.9739 140.848 27.9739 141.23C27.9739 141.712 27.8734 142.114 27.6724 142.436C27.4781 142.75 27.2067 142.985 26.8583 143.139C26.5166 143.293 26.1247 143.37 25.6825 143.37Z" fill="#89BBA4"/>
<path d="M165.81 133.34C165.68 133.34 165.55 133.31 165.44 133.25C165.33 133.19 165.27 133.1 165.27 132.98V126.33C165.27 126.24 165.31 126.16 165.39 126.09C165.47 126.02 165.57 125.99 165.69 125.99H167.65C168.06 125.99 168.43 126.06 168.77 126.21C169.11 126.36 169.37 126.59 169.56 126.91C169.75 127.23 169.85 127.67 169.85 128.2V128.28C169.85 128.82 169.75 129.25 169.55 129.57C169.35 129.9 169.08 130.13 168.74 130.28C168.4 130.43 168.02 130.5 167.59 130.5H166.34V132.98C166.34 133.1 166.28 133.19 166.17 133.25C166.06 133.31 165.94 133.34 165.8 133.34H165.81ZM166.34 129.66H167.59C167.97 129.66 168.26 129.55 168.47 129.34C168.68 129.13 168.79 128.8 168.79 128.35V128.23C168.79 127.79 168.68 127.46 168.47 127.25C168.26 127.04 167.97 126.93 167.59 126.93H166.34V129.65V129.66Z" fill="#89BBA4"/>
<path d="M173.13 133.4C172.71 133.4 172.33 133.33 171.99 133.18C171.65 133.03 171.38 132.79 171.19 132.47C170.99 132.14 170.89 131.71 170.89 131.16V128.24C170.89 127.7 170.99 127.26 171.19 126.93C171.39 126.6 171.66 126.36 171.99 126.22C172.32 126.08 172.71 126 173.14 126C173.57 126 173.94 126.07 174.29 126.22C174.64 126.37 174.9 126.61 175.1 126.93C175.3 127.26 175.4 127.69 175.4 128.24V131.16C175.4 131.7 175.3 132.14 175.1 132.47C174.9 132.8 174.63 133.04 174.29 133.18C173.95 133.32 173.56 133.4 173.13 133.4ZM173.13 132.46C173.51 132.46 173.8 132.35 174.01 132.14C174.22 131.93 174.33 131.6 174.33 131.16V128.24C174.33 127.8 174.22 127.47 174.01 127.26C173.8 127.05 173.51 126.94 173.13 126.94C172.75 126.94 172.46 127.05 172.25 127.26C172.04 127.47 171.93 127.8 171.93 128.24V131.16C171.93 131.6 172.03 131.93 172.24 132.14C172.45 132.35 172.74 132.46 173.11 132.46H173.13Z" fill="#89BBA4"/>
<path d="M180.81 133.37C180.72 133.37 180.64 133.34 180.57 133.28C180.5 133.22 180.44 133.15 180.39 133.06L178.91 130.19H177.9V132.99C177.9 133.1 177.84 133.19 177.73 133.25C177.62 133.31 177.5 133.34 177.36 133.34C177.22 133.34 177.1 133.31 176.99 133.25C176.88 133.19 176.82 133.1 176.82 132.99V126.34C176.82 126.25 176.85 126.17 176.92 126.1C176.98 126.03 177.07 126 177.19 126H179.1C179.52 126 179.91 126.06 180.26 126.19C180.61 126.31 180.89 126.52 181.09 126.82C181.29 127.12 181.4 127.53 181.4 128.05C181.4 128.45 181.34 128.79 181.21 129.06C181.08 129.33 180.92 129.54 180.71 129.7C180.5 129.86 180.26 129.97 179.99 130.05L181.4 132.69C181.4 132.69 181.42 132.74 181.43 132.77C181.43 132.8 181.43 132.83 181.43 132.85C181.43 132.94 181.4 133.02 181.33 133.11C181.26 133.19 181.18 133.26 181.08 133.32C180.98 133.38 180.88 133.4 180.77 133.4L180.81 133.37ZM177.92 129.33H179.13C179.51 129.33 179.81 129.24 180.03 129.06C180.25 128.88 180.37 128.57 180.37 128.14C180.37 127.71 180.26 127.4 180.03 127.22C179.81 127.04 179.51 126.95 179.13 126.95H177.92V129.34V129.33Z" fill="#89BBA4"/>
<path d="M184.4 133.34C184.27 133.34 184.14 133.31 184.03 133.25C183.92 133.19 183.86 133.1 183.86 132.99V126.97H182.3C182.19 126.97 182.11 126.92 182.05 126.82C181.99 126.72 181.96 126.61 181.96 126.48C181.96 126.36 181.99 126.25 182.04 126.15C182.09 126.05 182.18 126 182.3 126H186.47C186.6 126 186.69 126.05 186.74 126.15C186.79 126.25 186.82 126.36 186.82 126.47C186.82 126.6 186.79 126.72 186.73 126.82C186.67 126.92 186.58 126.97 186.46 126.97H184.91V132.99C184.91 133.1 184.85 133.19 184.74 133.25C184.63 133.31 184.51 133.34 184.37 133.34H184.4Z" fill="#89BBA4"/>
<path d="M190.07 133.4C189.64 133.4 189.25 133.33 188.9 133.18C188.55 133.03 188.28 132.79 188.08 132.47C187.88 132.14 187.78 131.71 187.78 131.16V126.34C187.78 126.22 187.83 126.13 187.94 126.08C188.05 126.03 188.17 126 188.31 126C188.44 126 188.56 126.03 188.67 126.08C188.78 126.13 188.84 126.22 188.84 126.34V131.16C188.84 131.6 188.95 131.93 189.16 132.14C189.37 132.35 189.68 132.46 190.06 132.46C190.44 132.46 190.74 132.35 190.96 132.14C191.18 131.93 191.29 131.6 191.29 131.16V126.34C191.29 126.22 191.34 126.13 191.45 126.08C191.56 126.03 191.68 126 191.82 126C191.95 126 192.07 126.03 192.18 126.08C192.29 126.13 192.35 126.22 192.35 126.34V131.16C192.35 131.7 192.25 132.14 192.04 132.47C191.84 132.8 191.56 133.04 191.21 133.18C190.86 133.33 190.47 133.4 190.04 133.4H190.07Z" fill="#89BBA4"/>
<path d="M196.04 133.4C195.61 133.4 195.23 133.33 194.89 133.18C194.55 133.03 194.28 132.79 194.09 132.47C193.89 132.14 193.79 131.71 193.79 131.16V128.24C193.79 127.7 193.89 127.26 194.09 126.93C194.29 126.6 194.56 126.36 194.89 126.22C195.22 126.08 195.6 126 196.01 126C196.47 126 196.86 126.08 197.21 126.23C197.56 126.38 197.82 126.6 198.01 126.87C198.2 127.14 198.3 127.47 198.3 127.85C198.3 128.05 198.25 128.19 198.16 128.26C198.07 128.33 197.94 128.37 197.76 128.37C197.62 128.37 197.5 128.35 197.39 128.29C197.28 128.23 197.23 128.15 197.22 128.01C197.2 127.82 197.15 127.64 197.08 127.47C197.01 127.31 196.89 127.18 196.72 127.08C196.55 126.98 196.32 126.93 196.03 126.93C195.65 126.93 195.36 127.04 195.15 127.25C194.94 127.46 194.83 127.79 194.83 128.23V131.15C194.83 131.59 194.94 131.92 195.15 132.13C195.36 132.34 195.65 132.45 196.03 132.45C196.41 132.45 196.69 132.34 196.9 132.13C197.11 131.92 197.22 131.59 197.22 131.15V130.33H196.2C196.09 130.33 196.01 130.29 195.95 130.2C195.89 130.11 195.86 130.01 195.86 129.9C195.86 129.8 195.89 129.7 195.95 129.61C196.01 129.52 196.09 129.47 196.2 129.47H197.93C198.04 129.47 198.13 129.51 198.19 129.58C198.25 129.65 198.28 129.74 198.28 129.84V131.16C198.28 131.7 198.18 132.14 197.98 132.47C197.78 132.8 197.51 133.04 197.17 133.18C196.83 133.32 196.45 133.4 196.02 133.4H196.04Z" fill="#89BBA4"/>
<path d="M199.77 133.34C199.68 133.34 199.58 133.32 199.47 133.28C199.36 133.24 199.28 133.19 199.21 133.12C199.14 133.06 199.11 132.98 199.11 132.89C199.11 132.87 199.11 132.84 199.11 132.8L201.11 126.29C201.15 126.17 201.24 126.08 201.37 126.02C201.5 125.96 201.64 125.93 201.79 125.93C201.94 125.93 202.09 125.96 202.22 126.02C202.35 126.08 202.44 126.17 202.48 126.29L204.47 132.8C204.47 132.8 204.49 132.87 204.49 132.89C204.49 132.97 204.45 133.04 204.38 133.11C204.31 133.18 204.22 133.23 204.12 133.27C204.02 133.31 203.91 133.33 203.81 133.33C203.72 133.33 203.65 133.31 203.58 133.28C203.52 133.25 203.47 133.19 203.44 133.11L203.03 131.68H200.54L200.14 133.11C200.12 133.19 200.07 133.25 200 133.28C199.93 133.31 199.85 133.33 199.76 133.33L199.77 133.34ZM200.78 130.84H202.79L201.78 127.39L200.78 130.84Z" fill="#89BBA4"/>
<path d="M205.95 133.34C205.84 133.34 205.73 133.31 205.63 133.25C205.53 133.19 205.48 133.1 205.48 132.99V126.34C205.48 126.22 205.54 126.13 205.65 126.08C205.76 126.03 205.88 126 206.02 126C206.16 126 206.28 126.03 206.39 126.08C206.5 126.13 206.56 126.22 206.56 126.34V132.4H209.17C209.28 132.4 209.36 132.45 209.41 132.55C209.46 132.65 209.49 132.76 209.49 132.88C209.49 132.99 209.46 133.1 209.41 133.2C209.36 133.3 209.28 133.35 209.17 133.35H205.96L205.95 133.34Z" fill="#89BBA4"/>
<path d="M165.37 143.34C165.28 143.34 165.17 143.31 165.06 143.24C164.95 143.18 164.89 143.09 164.89 142.98V142C164.89 141.73 164.97 141.47 165.13 141.24C165.29 141.01 165.49 140.79 165.74 140.58C165.99 140.37 166.26 140.17 166.54 139.97C166.82 139.77 167.09 139.57 167.33 139.37C167.58 139.17 167.78 138.95 167.94 138.73C168.1 138.51 168.18 138.27 168.18 138.01C168.18 137.84 168.14 137.68 168.06 137.52C167.98 137.36 167.86 137.23 167.7 137.12C167.54 137.01 167.33 136.96 167.08 136.96C166.8 136.96 166.56 137.04 166.36 137.2C166.16 137.36 166.06 137.61 166.06 137.95C166.06 138.05 166.01 138.14 165.91 138.23C165.81 138.31 165.68 138.36 165.5 138.36C165.35 138.36 165.23 138.32 165.15 138.23C165.06 138.15 165.02 137.99 165.02 137.76C165.02 137.4 165.11 137.08 165.3 136.82C165.49 136.56 165.74 136.35 166.05 136.2C166.36 136.05 166.7 135.98 167.07 135.98C167.46 135.98 167.82 136.06 168.15 136.23C168.48 136.4 168.74 136.63 168.94 136.93C169.14 137.23 169.24 137.58 169.24 137.98C169.24 138.34 169.16 138.66 169 138.94C168.84 139.23 168.64 139.49 168.39 139.72C168.14 139.95 167.88 140.17 167.6 140.36C167.32 140.55 167.06 140.74 166.82 140.91C166.58 141.08 166.37 141.26 166.22 141.43C166.06 141.6 165.98 141.79 165.98 141.98V142.36H168.92C169.01 142.36 169.1 142.41 169.17 142.5C169.24 142.59 169.28 142.7 169.28 142.83C169.28 142.96 169.24 143.07 169.17 143.17C169.1 143.27 169.02 143.32 168.92 143.32H165.34L165.37 143.34Z" fill="#89BBA4"/>
<path d="M172.53 143.4C172.11 143.4 171.73 143.33 171.38 143.18C171.04 143.03 170.77 142.79 170.57 142.47C170.37 142.14 170.27 141.71 170.27 141.16V138.24C170.27 137.7 170.37 137.26 170.57 136.93C170.77 136.6 171.04 136.36 171.37 136.22C171.7 136.08 172.09 136 172.52 136C172.95 136 173.33 136.07 173.67 136.22C174.01 136.37 174.29 136.61 174.48 136.93C174.68 137.26 174.78 137.69 174.78 138.24V141.16C174.78 141.7 174.68 142.14 174.48 142.47C174.28 142.8 174.01 143.04 173.67 143.18C173.33 143.32 172.94 143.4 172.51 143.4H172.53ZM172.53 142.46C172.91 142.46 173.2 142.35 173.41 142.14C173.62 141.93 173.73 141.6 173.73 141.16V138.24C173.73 137.8 173.62 137.47 173.41 137.26C173.2 137.05 172.91 136.94 172.53 136.94C172.15 136.94 171.86 137.05 171.66 137.26C171.45 137.47 171.35 137.8 171.35 138.24V141.16C171.35 141.6 171.45 141.93 171.66 142.14C171.87 142.35 172.16 142.46 172.53 142.46ZM172.54 140.14C172.41 140.14 172.31 140.1 172.23 140.01C172.15 139.93 172.11 139.82 172.11 139.69C172.11 139.57 172.15 139.47 172.23 139.39C172.31 139.31 172.41 139.27 172.54 139.27C172.67 139.27 172.77 139.31 172.85 139.39C172.93 139.47 172.97 139.57 172.97 139.69C172.97 139.82 172.93 139.92 172.85 140.01C172.77 140.09 172.67 140.14 172.54 140.14Z" fill="#89BBA4"/>
<path d="M176.26 143.34C176.17 143.34 176.06 143.31 175.95 143.24C175.84 143.18 175.78 143.09 175.78 142.98V142C175.78 141.73 175.86 141.47 176.02 141.24C176.18 141.01 176.38 140.79 176.63 140.58C176.88 140.37 177.15 140.17 177.43 139.97C177.71 139.77 177.98 139.57 178.22 139.37C178.47 139.17 178.67 138.95 178.83 138.73C178.99 138.51 179.07 138.27 179.07 138.01C179.07 137.84 179.03 137.68 178.95 137.52C178.87 137.36 178.75 137.23 178.59 137.12C178.43 137.01 178.22 136.96 177.97 136.96C177.69 136.96 177.45 137.04 177.25 137.2C177.05 137.36 176.95 137.61 176.95 137.95C176.95 138.05 176.9 138.14 176.8 138.23C176.7 138.31 176.57 138.36 176.39 138.36C176.24 138.36 176.12 138.32 176.04 138.23C175.95 138.15 175.91 137.99 175.91 137.76C175.91 137.4 176 137.08 176.19 136.82C176.38 136.56 176.63 136.35 176.94 136.2C177.25 136.05 177.59 135.98 177.96 135.98C178.35 135.98 178.71 136.06 179.04 136.23C179.37 136.4 179.63 136.63 179.83 136.93C180.03 137.23 180.13 137.58 180.13 137.98C180.13 138.34 180.05 138.66 179.89 138.94C179.73 139.23 179.53 139.49 179.28 139.72C179.03 139.95 178.77 140.17 178.49 140.36C178.21 140.55 177.95 140.74 177.71 140.91C177.47 141.08 177.26 141.26 177.11 141.43C176.95 141.6 176.87 141.79 176.87 141.98V142.36H179.81C179.9 142.36 179.99 142.41 180.06 142.5C180.13 142.59 180.17 142.7 180.17 142.83C180.17 142.96 180.13 143.07 180.06 143.17C179.99 143.27 179.91 143.32 179.81 143.32H176.23L176.26 143.34Z" fill="#89BBA4"/>
<path d="M183.79 143.34C183.66 143.34 183.53 143.31 183.42 143.25C183.31 143.19 183.25 143.1 183.25 142.99V141.69H180.79C180.68 141.69 180.59 141.65 180.52 141.58C180.45 141.51 180.42 141.41 180.42 141.29C180.42 141.26 180.42 141.22 180.44 141.18C180.46 141.14 180.47 141.1 180.49 141.07L182.91 136.28C182.97 136.17 183.04 136.1 183.13 136.05C183.21 136.01 183.3 135.98 183.39 135.98C183.46 135.98 183.53 136 183.61 136.03C183.69 136.06 183.76 136.11 183.82 136.17C183.88 136.23 183.91 136.3 183.91 136.39C183.91 136.43 183.9 136.48 183.87 136.55L181.79 140.68H183.27V139.29C183.27 139.16 183.33 139.07 183.44 139.02C183.55 138.97 183.67 138.94 183.81 138.94C183.95 138.94 184.07 138.97 184.18 139.02C184.29 139.07 184.35 139.16 184.35 139.29V140.68H184.85C184.97 140.68 185.06 140.73 185.12 140.84C185.18 140.94 185.21 141.06 185.21 141.19C185.21 141.31 185.17 141.42 185.1 141.53C185.03 141.63 184.95 141.69 184.85 141.69H184.35V142.99C184.35 143.1 184.29 143.19 184.18 143.25C184.07 143.31 183.95 143.34 183.81 143.34H183.79Z" fill="#89BBA4"/>
<path d="M156.68 134.23C156.68 136.62 155.22 138.24 153.47 139.84C151.72 141.44 139.15 149.46 136.19 150.75C133.68 151.85 131.81 152.17 130.27 152.17C126.9 152.17 124.01 150.15 122.72 147.26C122.72 147.26 119.66 140.82 113.82 131.8C112.01 129.01 109.31 124.87 106.74 120.92L123.54 110.97C126.24 115.53 129.07 120.23 130.6 122.53C134.11 127.78 136.11 130.71 140.45 130.29L147.81 128.15C148.54 127.86 149.34 127.7 150.17 127.7C153.77 127.7 156.68 130.61 156.68 134.21V134.23Z" fill="#B0CABF"/>
<path d="M123.54 110.98L106.74 120.93C102.93 115.1 99.3899 109.7 99.3899 109.7L116.83 99.51C116.83 99.51 120.08 105.13 123.54 110.98Z" fill="#DF7151"/>
<path d="M89.9098 146.04C92.0398 150.17 89.7898 153.43 87.2798 155.06C84.7798 156.69 79.5198 155.43 75.5098 153.68C71.4998 151.93 66.6298 148.42 63.9898 147.17C61.3598 145.92 57.5898 145.05 56.4798 139.78C55.4798 135.02 58.4798 132.02 62.1098 128.39C65.5498 124.95 73.0598 115.76 76.5998 110.76L91.5398 119.65C88.1098 124.63 84.6398 129.57 83.3998 131.52C81.0198 135.28 80.7598 137.65 82.5198 139.4C84.5098 141.39 87.7798 141.91 89.9098 146.03V146.04Z" fill="#1E495B"/>
<path d="M99.0499 107.98C97.8499 110.33 94.7199 115.01 91.5399 119.64L76.5999 110.75C76.7899 110.48 76.9699 110.22 77.1299 109.98C79.0099 107.22 83.3899 100.84 83.3899 100.84L99.0399 107.98H99.0499Z" fill="#DF7151"/>
<path d="M99.92 54.32C98.11 53.85 97.37 53.39 96.72 52.8C94.24 49.33 90.19 48.22 85.79 50C81.39 51.78 79.26 55.41 79.89 59.62C79.83 60.5 79.62 61.34 78.65 62.94C70.12 70.61 67.73 82.05 72.72 94.35C79.29 110.55 94 116.77 110.21 110.2C126.41 103.63 132.63 88.92 126.06 72.71C121.07 60.41 111.39 53.87 99.92 54.3V54.32Z" fill="#FFCB06"/>
<path d="M23.9599 97.1499C23.9299 96.9799 22.0599 86.6699 20.1699 76.5899C15.1499 73.9799 10.0299 70.9299 6.80992 68.0899C1.60992 63.4999 -0.990084 56.5699 0.349916 50.8499C1.33992 46.5899 4.34992 43.4899 8.58992 42.3399C11.6599 41.5099 14.6899 41.9199 17.3499 43.5399C21.2899 45.9299 24.1599 50.8299 25.6699 57.7099C26.2799 60.4799 27.2199 65.2799 28.2199 70.5499C31.5499 72.1499 34.6099 73.4699 36.6299 74.1899C38.2599 74.7699 39.6199 75.2299 40.7099 75.5799C42.1099 73.0199 44.0799 69.0399 45.4099 64.7499L54.0299 67.4399C51.3799 75.9099 46.7999 83.0699 46.6099 83.3699C45.5599 84.9999 43.5899 85.7799 41.6999 85.2999C41.5899 85.2699 38.8899 84.5799 33.5899 82.6899C32.7499 82.3899 31.5999 81.9399 30.2399 81.3599C31.6099 88.7599 32.7399 94.9899 32.8399 95.5399L23.9499 97.1499H23.9599ZM11.6399 50.9499C11.4299 50.9499 11.1999 50.9799 10.9499 51.0499C9.91992 51.3299 9.37992 51.8799 9.14992 52.8899C8.64992 55.0399 9.73992 58.6199 12.7899 61.3099C14.0799 62.4499 15.8899 63.7099 17.9499 64.9799C17.5199 62.8099 17.1399 60.9599 16.8499 59.6299C15.4799 53.3799 13.2999 51.6399 12.6699 51.2499C12.3299 51.0399 12.0099 50.9399 11.6499 50.9399L11.6399 50.9499Z" fill="#1E495B"/>
<path d="M37.4989 37.2981L31.5029 44.0635L54.0665 64.0612L60.0625 57.2958L37.4989 37.2981Z" fill="#1E495B"/>
<path d="M27.0999 39.2198C26.9099 39.2198 26.7099 39.2098 26.5199 39.1898C25.0799 39.0398 23.7799 38.3298 22.8699 37.1998C21.9599 36.0698 21.5399 34.6498 21.6899 33.2098C21.9999 30.2298 24.6799 28.0598 27.6599 28.3698C29.1099 28.5198 30.3999 29.2298 31.3199 30.3598C32.2299 31.4898 32.6499 32.8998 32.4999 34.3498C32.3499 35.7898 31.6399 37.0898 30.5099 38.0098C29.5299 38.7998 28.3399 39.2198 27.0999 39.2198Z" fill="#1E495B"/>
<path d="M64.38 55.1099C63.97 54.6799 54.3 44.4999 48.7 33.7199C45.42 27.3999 44.55 21.9699 46.12 17.5899C47.29 14.3199 49.74 11.7999 53.21 10.3099C56.92 8.71993 62.5 8.47993 69.15 15.0799C69.45 9.05993 71.44 2.97993 77.68 0.809934C81.25 -0.430066 84.75 -0.230066 87.83 1.39993C91.95 3.57993 94.97 8.16993 96.81 15.0499C99.96 26.7899 99.7 40.8199 99.68 41.4099L90.65 41.2199C90.65 41.0899 90.89 27.8599 88.08 17.3899C86.55 11.6799 84.61 9.92993 83.6 9.38993C83.3 9.22993 82.38 8.74993 80.65 9.34993C77.82 10.3399 78.03 16.7499 78.25 19.4699C78.7 24.9199 81.21 33.7099 81.23 33.7999L72.84 37.0599C72.8 36.9799 68.7 28.7799 65.37 24.4699C63.7 22.3199 59.53 17.4399 56.77 18.6199C55.09 19.3399 54.74 20.3199 54.62 20.6399C54.23 21.7199 53.99 24.3299 56.71 29.5699C61.71 39.1899 70.81 48.7899 70.9 48.8899L64.36 55.1299L64.38 55.1099Z" fill="#1E495B"/>
<path d="M120.12 43.7C118.89 43.7 117.62 43.57 116.33 43.31C110.88 42.22 106.78 39.21 104.5 34.59C102.38 30.31 101.94 24.95 103.2 18.64C104.46 12.34 106.92 7.55005 110.52 4.41005C114.4 1.02005 119.34 -0.199953 124.79 0.890047C130.24 1.98005 134.34 4.99005 136.62 9.61005C138.74 13.89 139.18 19.25 137.92 25.56C136.66 31.86 134.2 36.65 130.6 39.79C127.64 42.37 124.07 43.69 120.12 43.69V43.7ZM121.02 9.55005C119.24 9.55005 117.74 10.11 116.45 11.23C114.42 13 112.9 16.18 112.05 20.42C111.2 24.66 111.39 28.18 112.59 30.59C113.62 32.66 115.42 33.93 118.09 34.46C120.77 34.99 122.92 34.51 124.66 32.99C126.69 31.22 128.21 28.04 129.06 23.8C129.91 19.56 129.72 16.04 128.52 13.63C127.49 11.56 125.69 10.29 123.02 9.76005C122.32 9.62005 121.65 9.55005 121.02 9.55005Z" fill="#1E495B"/>
<path d="M176.57 96.31C173.96 96.31 171.55 95.89 169.37 95.03C164.57 93.16 161.2 89.35 159.64 84.01C158.08 78.67 158.86 73.6501 161.89 69.4801C164.7 65.6201 169.25 62.75 175.42 60.94C181.59 59.13 186.97 59.1 191.42 60.84C196.22 62.71 199.59 66.52 201.15 71.86C202.71 77.2 201.93 82.22 198.9 86.39C196.09 90.25 191.54 93.12 185.37 94.93C182.23 95.85 179.28 96.31 176.57 96.31ZM184.22 68.61C182.37 68.61 180.26 68.95 177.96 69.62C173.81 70.83 170.78 72.63 169.19 74.81C167.83 76.68 167.54 78.86 168.31 81.48C169.08 84.1 170.5 85.78 172.65 86.62C175.16 87.6 178.68 87.48 182.83 86.26C186.98 85.05 190.01 83.25 191.6 81.07C192.96 79.2 193.25 77.02 192.48 74.4C191.71 71.78 190.29 70.1 188.14 69.26C187.02 68.82 185.71 68.61 184.22 68.61Z" fill="#1E495B"/>
<path d="M153.09 69.42L148.18 61.83C148.91 61.36 149.67 60.87 150.46 60.36C157.58 55.79 169.5 48.13 171.83 43.17C172.82 41.07 172.73 38.62 171.6 37.08C170.05 34.96 166.93 34.87 164.59 35.18C157.3 36.12 144.83 47.11 138.69 53.82L131.6 48.26L154.21 14.46L161.72 19.48L155.44 28.87C158.15 27.52 160.86 26.55 163.43 26.22C172.51 25.04 177.02 29.19 178.9 31.76C182 36.02 182.43 41.86 180 47.02C176.82 53.78 166.95 60.51 155.33 67.97C154.55 68.47 153.79 68.96 153.07 69.42H153.09Z" fill="#1E495B"/>
<path d="M82.85 88.85C82.31 90.42 81.6 91.07 80.74 90.78C79.88 90.49 79.71 89.54 80.24 87.97C80.77 86.4 81.49 85.75 82.35 86.04C83.21 86.33 83.38 87.28 82.85 88.85ZM100.23 82.08C99.37 81.79 98.65 82.43 98.12 84.01C97.58 85.58 97.75 86.53 98.62 86.82C99.49 87.11 100.2 86.47 100.73 84.89C101.27 83.32 101.1 82.37 100.23 82.08ZM100.2 98.47C99.34 98.18 98.62 98.82 98.09 100.4C97.55 101.97 97.72 102.92 98.59 103.21C99.46 103.5 100.17 102.86 100.7 101.28C101.24 99.71 101.07 98.76 100.2 98.47ZM88.94 67.12C88.08 66.83 87.36 67.47 86.83 69.05C86.29 70.62 86.46 71.57 87.33 71.86C88.2 72.15 88.91 71.51 89.44 69.93C89.97 68.35 89.81 67.41 88.94 67.12ZM107.96 64.08C107.1 63.79 106.38 64.43 105.85 66.01C105.31 67.58 105.48 68.53 106.35 68.82C107.22 69.11 107.93 68.47 108.46 66.89C108.99 65.31 108.83 64.37 107.96 64.08ZM118.71 78.33C117.85 78.04 117.13 78.68 116.6 80.26C116.07 81.84 116.23 82.78 117.1 83.07C117.96 83.36 118.68 82.72 119.21 81.14C119.75 79.57 119.58 78.62 118.71 78.33Z" fill="#1E495B"/>
</svg>
